<svg preserveAspectRatio="xMidYMid meet" data-bbox="0.017 0.02 841.883 309.68" viewBox="0 0 841.9 309" xmlns="http://www.w3.org/2000/svg" data-type="ugc" role="presentation" aria-hidden="true" aria-label="">
    <g>
        <linearGradient gradientTransform="rotate(-16.755 484.586 107.315)" y2="-5.123" x2="-80.699" y1="109.999" x1="254.32" gradientUnits="userSpaceOnUse" id="c61ebdf1-c88d-4af8-859c-c708523e2f22_comp-krjf65bc_r_comp-kr4vck3q1">
            <stop offset=".212" stop-color="#0058a9"></stop>
            <stop offset=".323" stop-color="#006fb8"></stop>
            <stop offset=".573" stop-color="#00b1e8"></stop>
            <stop offset=".616" stop-color="#00bff3"></stop>
        </linearGradient>
        <path d="M102.3 156.6c.5.2.9.5 1.4.7 6.3 1.9 10 12.6 19.6 12.1 7.7-.2 11.4-5.4 15.4-9.6.7-.7 1.4-1.4 2.1-1.9l.2-.2.7-.7c.2-.2.7-.5.9-.7.2 0 .2-.2.5-.2.2-.2.5-.2.7-.5 3.5-1.9 7.7-2.3 11.4-.9 8.4 2.8 12.8 12.6 9.8 22.1-3 9.6-12.3 14.9-20.7 12.1-1.2-.5-2.1-.9-3.3-1.4h-.2c-4.7-1.2-7.7-14.2-18.4-13.7-8.2.5-16.3 11.4-20 11.6-3 1.2-6.3 1.6-9.6.5-.7-.2-1.2-.5-1.9-.9h-.2c-4.2-1.4-8.9-11.4-18.2-12.1-8.2-.7-14 7.5-19.8 8.6H52c-1.9.2-3.7.2-5.8-.5-.9-.2-1.6-.7-2.6-1.2-3-.7-6.3-8.4-14.9-9.8-7.7-1.4-14.9 4.9-18.9 5.1-1.2.2-2.3 0-3.7-.5-4.7-1.4-7.2-6.5-5.6-11.4 1.6-4.7 6.5-7.5 11.2-5.8.5.2.9.2 1.2.5 1.9 0 9.3 6.8 14.9 6.8 8.9.2 15.8-8.6 20.3-8.2h.2c1.9-.2 3.7-.2 5.8.5.9.2 1.6.7 2.6 1.2 4.9 2.3 8.4 9.1 16.5 9.3 8.4.2 15.4-10.7 22.1-11.4 2.1-.4 4.7-.4 7 .5z" fill="url(#c61ebdf1-c88d-4af8-859c-c708523e2f22_comp-krjf65bc_r_comp-kr4vck3q1)"></path>
        <linearGradient gradientTransform="rotate(-16.755 484.586 107.315)" y2="-41.346" x2="-68.249" y1="73.775" x1="266.768" gradientUnits="userSpaceOnUse" id="03c6207f-9119-42bd-92ae-ce54476456a3_comp-krjf65bc_r_comp-kr4vck3q1">
            <stop offset=".212" stop-color="#0058a9"></stop>
            <stop offset=".323" stop-color="#006fb8"></stop>
            <stop offset=".573" stop-color="#00b1e8"></stop>
            <stop offset=".616" stop-color="#00bff3"></stop>
        </linearGradient>
        <path d="M104.4 97c1.6.5 2.8 1.4 4 2.3 5.1 2.8 5.1 14.9 13.7 17.7 8.6 3 17-2.8 21.4-1.6 1.2 0 2.6.2 3.7.5 3.5 1.2 6.1 3.7 7.7 7h.2c1.2 1.6 3.5 13 10.5 15.8 6.8 2.6 13.5-2.1 16.1-2.1 2.3-.7 4.9-.9 7.5 0 7.2 2.3 10.9 11.6 7.9 20.7s-11.2 14.4-18.6 12.1c-4.4-1.4-7.2-5.4-8.4-10 0 0-.2 0-.2-.2-1.2-4-.9-11.2-6.5-14.9-7.7-4.9-17 2.3-21.2 1.6-1.4 0-3 0-4.4-.5-2.1-.7-4-2.1-5.4-3.7-.2 0-.2 0-.5-.2-3.3-2.3-4.7-16.8-12.3-19.8-8.2-3.3-18.6 1.9-21.7 0l-.2-.2c-.5 0-.9-.2-1.4-.2-6.3-2.1-9.8-9.1-7.5-15.8 2.3-6.9 9.3-10.6 15.6-8.5z" fill="url(#03c6207f-9119-42bd-92ae-ce54476456a3_comp-krjf65bc_r_comp-kr4vck3q1)"></path>
        <linearGradient gradientTransform="rotate(-16.755 484.586 107.315)" y2="29.999" x2="-92.772" y1="145.122" x1="242.251" gradientUnits="userSpaceOnUse" id="934ef5ee-b434-419b-8a83-0412bb51f702_comp-krjf65bc_r_comp-kr4vck3q1">
            <stop offset=".212" stop-color="#0058a9"></stop>
            <stop offset=".323" stop-color="#006fb8"></stop>
            <stop offset=".573" stop-color="#00b1e8"></stop>
            <stop offset=".616" stop-color="#00bff3"></stop>
        </linearGradient>
        <path d="M137.5 195.7c3-.2 8.9 6.8 15.4 5.1 7.2-1.9 10.9-8.6 13.7-13.5.5-.7.7-1.4 1.2-2.1.9-1.4 1.6-2.6 2.3-3 3.7-3.7 8.4-5.4 12.8-4 7 2.1 10.2 11.2 7.5 20.3-2.8 8.9-10.7 14.4-17.7 12.1-.2 0-.5-.2-.7-.2v.2c-.9.2-10.9-7.9-17-6.1-6.3 1.9-13.5 14.4-14.9 14.9-3.7 3.5-8.6 5.1-13 3.3-2.3 0-10.7-6.8-17.2-5.1-6.5 1.6-12.1 10.9-14.2 11.9-1.2 1.2-2.8 2.1-4.4 2.6-3 .9-6.3.5-8.9-.7h-.2c-1.4-.5-6.1-5.6-13.7-3.3-6.5 2.1-12.3 6.3-14 7-.5.5-1.2.9-1.9 1.4-4 2.1-8.9.7-10.7-3.3-2.1-4-.5-8.6 3.3-10.7 2.1-1.2 4.2-1.2 6.3-.5 3.3.2 9.8 3.3 15.4 2.3 6.1-1.2 14-13.5 17.9-13.3 2.8-.9 5.6-.7 7.9.5 2.1 0 10.5 4.4 15.4 3.3 7.5-1.6 12.3-12.6 15.4-14.4 3.3-4.4 9.1-6.5 14-4.7z" fill="url(#934ef5ee-b434-419b-8a83-0412bb51f702_comp-krjf65bc_r_comp-kr4vck3q1)"></path>
        <linearGradient gradientTransform="rotate(-16.755 484.586 107.315)" y2="-90.013" x2="-51.523" y1="25.108" x1="283.492" gradientUnits="userSpaceOnUse" id="a90b2ccc-b360-479f-ac5f-000bd8dfed2c_comp-krjf65bc_r_comp-kr4vck3q1">
            <stop offset=".212" stop-color="#0058a9"></stop>
            <stop offset=".323" stop-color="#006fb8"></stop>
            <stop offset=".573" stop-color="#00b1e8"></stop>
            <stop offset=".616" stop-color="#00bff3"></stop>
        </linearGradient>
        <path d="M190.8 108.2c2.8 9.3-1.4 18.6-9.1 21-7.9 2.3-16.3-3.3-19.1-12.3-.2-.7-.5-1.4-.5-2.1-1.9-2.3.5-17-5.8-21.7-5.8-4.2-16.5-.5-20.5-4.4-3.5-1.6-6.3-4.7-7.5-8.9-1.2-2.8-1.6-14.7-7.5-18.9-5.1-3.7-10-5.6-14.9-5.4-.2 0-.5 0-.5-.2-4.7 0-8.9-2.8-10.2-7.5-1.6-5.6 1.9-11.6 7.7-13.5 4.4-1.4 8.9 0 11.6 3 4.2 2.6 5.8 15.1 10.2 19.3 4.7 4.2 13 5.4 17.7 5.4 4.4.5 8.4 3.3 10.5 7.5h.2c1.6 2.6 5.1 17.7 9.3 21.7 4 3.7 10.9 3 15.1 4 5.6 1.1 11 6 13.3 13z" fill="url(#a90b2ccc-b360-479f-ac5f-000bd8dfed2c_comp-krjf65bc_r_comp-kr4vck3q1)"></path>
        <linearGradient gradientTransform="rotate(-16.755 484.586 107.315)" y2="-100.459" x2="-47.925" y1="14.659" x1="287.082" gradientUnits="userSpaceOnUse" id="e7f1f00c-6ccd-4264-b08c-3f531373e59e_comp-krjf65bc_r_comp-kr4vck3q1">
            <stop offset=".212" stop-color="#0058a9"></stop>
            <stop offset=".323" stop-color="#006fb8"></stop>
            <stop offset=".573" stop-color="#00b1e8"></stop>
            <stop offset=".616" stop-color="#00bff3"></stop>
        </linearGradient>
        <path d="M220.2 122.8c.9 8.9-3.5 16.8-10 17.5-6.5.7-12.6-6.1-13.5-14.9-.2-2.3 0-4.7.2-6.8-.2-3.3 3.3-11.2.7-16.8-2.3-5.4-6.8-8.2-10.9-11.9-2.6-1.9-4.7-4.7-5.8-8.4-.5-1.2-.5-2.3-.7-3.5-1.2-4 2.6-13-.2-18.6-2.3-4.7-8.2-8.6-11.4-10.9-.2 0-.2-.2-.2-.5-1.2-.7-2.1-1.9-2.8-3-1.6-2.3-2.3-4.9-2.3-7.2l-.2-.2c-.5-3.3 1.6-6.5-1.6-12.3-3.3-5.8-6.1-7.7-9.1-9.6-.2 0-.2-.2-.5-.5-.5-.2-.9-.7-1.2-.9-3-2.8-4-7-1.9-9.1 2.1-2.1 6.1-1.6 9.1 1.4.9.9 1.9 2.1 2.3 3.3.9 1.9.9 7.5 4 12.3 3 4.7 9.1 7.9 11.2 10.2 1.2.9 2.3 1.9 3.3 3.3 1.2 1.6 1.6 3.3 2.1 4.9.2.2.2.5.2.7.9 4.4.7 11.9 3 16.8s9.3 7.2 11.9 9.8v.2c2.3 1.9 4.2 4.4 5.1 7.7.2.5.2 1.2.5 1.6 0 0 .2 0 .2.2v.7c.2 1.4.2 2.8 0 4.2.2 5.4.7 13.5 2.6 18.6 2.8 7.7 8.2 7.5 10 10v.2c3.3 2.2 5.4 6.6 5.9 11.5z" fill="url(#e7f1f00c-6ccd-4264-b08c-3f531373e59e_comp-krjf65bc_r_comp-kr4vck3q1)"></path>
        <linearGradient gradientTransform="rotate(-16.755 484.586 107.315)" y2="-108.105" x2="-45.307" y1="7.017" x1="289.71" gradientUnits="userSpaceOnUse" id="c969938c-e7a4-457a-8fd7-b7638e274331_comp-krjf65bc_r_comp-kr4vck3q1">
            <stop offset=".212" stop-color="#0058a9"></stop>
            <stop offset=".323" stop-color="#006fb8"></stop>
            <stop offset=".573" stop-color="#00b1e8"></stop>
            <stop offset=".616" stop-color="#00bff3"></stop>
        </linearGradient>
        <path d="M171.2 59.2c2.8 3.7 2.3 8.6-.7 10.9-3 2.3-7.9 1.2-10.7-2.3-2.8-3.7-2.3-8.6.7-10.9 3.3-2.6 7.9-1.4 10.7 2.3z" fill="url(#c969938c-e7a4-457a-8fd7-b7638e274331_comp-krjf65bc_r_comp-kr4vck3q1)"></path>
        <linearGradient gradientTransform="rotate(-16.755 484.586 107.315)" y2="-83.232" x2="-53.855" y1="31.89" x1="281.162" gradientUnits="userSpaceOnUse" id="6b339a0e-f1c7-42a4-91cb-23c783b11166_comp-krjf65bc_r_comp-kr4vck3q1">
            <stop offset=".212" stop-color="#0058a9"></stop>
            <stop offset=".323" stop-color="#006fb8"></stop>
            <stop offset=".573" stop-color="#00b1e8"></stop>
            <stop offset=".616" stop-color="#00bff3"></stop>
        </linearGradient>
        <path d="M106.9 68.3h.5c4.4 2.8 6.3 16.8 10 19.8 4.4 3.7 10 5.4 13.5 5.8 3.3.2 6.5 2.6 7.5 6.1 1.4 4.4-1.2 9.3-5.6 10.7-4.2 1.4-8.9-1.2-10.2-5.4-2.1-3-4.9-11.9-9.6-14.4-5.1-2.8-10.2-1.9-17-3.5-.2 0-.5-.2-.5-.2-4-.9-7.5-3.7-8.6-7.7-1.9-6.1 1.9-12.6 7.9-14.4 4.5-1.4 9.1 0 12.1 3.2z" fill="url(#6b339a0e-f1c7-42a4-91cb-23c783b11166_comp-krjf65bc_r_comp-kr4vck3q1)"></path>
        <linearGradient gradientTransform="rotate(-16.755 484.586 107.315)" y2="-33.371" x2="-70.991" y1="81.751" x1="264.028" gradientUnits="userSpaceOnUse" id="e6002e9d-2a4f-4fd7-a619-31c6ea330d8c_comp-krjf65bc_r_comp-kr4vck3q1">
            <stop offset=".212" stop-color="#0058a9"></stop>
            <stop offset=".323" stop-color="#006fb8"></stop>
            <stop offset=".573" stop-color="#00b1e8"></stop>
            <stop offset=".616" stop-color="#00bff3"></stop>
        </linearGradient>
        <path d="M112.8 148.9c-4.7 1.4-9.3-1.4-10.7-6.1-1.4-4.7 1.2-9.6 5.8-10.9s9.3 1.4 10.7 6.1c1.2 4.6-1.4 9.5-5.8 10.9z" fill="url(#e6002e9d-2a4f-4fd7-a619-31c6ea330d8c_comp-krjf65bc_r_comp-kr4vck3q1)"></path>
        <linearGradient gradientTransform="rotate(-16.755 484.586 107.315)" y2="24.77" x2="-90.972" y1="139.893" x1="244.048" gradientUnits="userSpaceOnUse" id="cfbd5d44-4157-437a-8ba3-57d9c54b0a9c_comp-krjf65bc_r_comp-kr4vck3q1">
            <stop offset=".212" stop-color="#0058a9"></stop>
            <stop offset=".323" stop-color="#006fb8"></stop>
            <stop offset=".573" stop-color="#00b1e8"></stop>
            <stop offset=".616" stop-color="#00bff3"></stop>
        </linearGradient>
        <path d="M101.1 206h-.5c-2.3-.5-7.9-4.2-14.7-3.7-6.5.5-12.1 7.5-18.6 8.4h-.5c-6.3 1.9-13-1.2-14.7-7-1.6-5.8 2.1-12.1 8.4-14 2.8-.9 5.6-.7 8.2.2 4.2.9 10.9 8.2 17.2 8.2 7.9-.2 12.3-7 19.3-7 .5 0 .9 0 1.2.2 3.5.2 6.5 2.1 7.5 5.4 1.2 4.2-1.6 8.6-6.3 10-1.8.5-4.4.2-6.5-.7z" fill="url(#cfbd5d44-4157-437a-8ba3-57d9c54b0a9c_comp-krjf65bc_r_comp-kr4vck3q1)"></path>
        <linearGradient gradientTransform="rotate(-16.755 484.586 107.315)" y2="72.756" x2="-107.469" y1="187.881" x1="227.558" gradientUnits="userSpaceOnUse" id="9d9fe28c-ccd2-42c1-9259-595fa7c9ecc8_comp-krjf65bc_r_comp-kr4vck3q1">
            <stop offset=".212" stop-color="#0058a9"></stop>
            <stop offset=".323" stop-color="#006fb8"></stop>
            <stop offset=".573" stop-color="#00b1e8"></stop>
            <stop offset=".616" stop-color="#00bff3"></stop>
        </linearGradient>
        <path d="M112.5 294.7c0-.2 0-.2 0 0 2.6-1.4 7.5-2.1 10-4.2 1.9-1.6 3.5-5.6 5.4-7.7 1.2-1.6 3.3-3.3 5.8-4.7 1.2-.7 2.1-1.2 3.3-1.4 2.8-1.2 6.5-3 9.6-6.3 3.3-3.5 4.9-11.9 8.2-15.1.9-1.4 2.3-2.8 4-4 1.2-.9 2.3-1.4 3.5-2.1.5-.2.7-.2 1.2-.5 3-1.4 8.2-4.7 11.2-7.9 3.3-3.7 4.7-16.3 7.5-20.3.5-1.2 1.2-2.1 1.9-3.3 4.9-7.2 12.3-10.7 16.5-7.9 4.2 2.8 3.7 10.9-1.2 18.2-2.8 4-6.3 6.8-9.6 8.2-3 1.2-7.2 2.6-10.7 6.1-4.7 4.7-4 8.9-5.6 12.3v.2c-.7 2.8-2.8 5.8-6.1 8.2-.9.7-2.1 1.4-3 1.9l-.5.5c-5.1 2.1-9.1 3-14 6.3-4.7 3.5-4 7.9-6.3 9.8 0 0-.2 0-.2.2-1.2 1.4-3 2.8-5.4 4.2-1.4.7-2.6 1.2-4 1.6 0 0-.2.2-.5.2-2.6.7-5.6 2.3-8.6 4.4-3 2.1-3 4.2-4.9 5.4 0 0-.2.2-.5.2-.9.9-2.6 1.9-4.7 2.3-3.5.9-6.5.9-7-.5-.4-1.7 1.7-3.3 4.7-4.3z" fill="url(#9d9fe28c-ccd2-42c1-9259-595fa7c9ecc8_comp-krjf65bc_r_comp-kr4vck3q1)"></path>
        <linearGradient gradientTransform="rotate(-16.755 484.586 107.315)" y2="73.964" x2="-107.881" y1="189.088" x1="227.143" gradientUnits="userSpaceOnUse" id="ab6fd8ff-f9c3-4f31-88c5-40f6ae0a049d_comp-krjf65bc_r_comp-kr4vck3q1">
            <stop offset=".212" stop-color="#0058a9"></stop>
            <stop offset=".323" stop-color="#006fb8"></stop>
            <stop offset=".573" stop-color="#00b1e8"></stop>
            <stop offset=".616" stop-color="#00bff3"></stop>
        </linearGradient>
        <path d="M58 285.7h1.6c2.6 0 6.1-.5 8.9-2.6 3.3-2.6 7.7-9.6 12.1-10.2.9-.5 2.1-.7 3.3-.9.9-.2 1.9-.2 3-.5 3.7-.5 10.9-1.6 14-3.7 3-2.3 5.4-13.5 9.6-15.8 1.6-1.6 4-3 6.8-4 1.2-.5 2.3-.5 3.5-.7 2.8-.5 11.9-.7 16.3-3.7 4.4-2.8 6.8-16.8 9.8-19.3.9-1.4 2.1-2.8 3.3-4.2 6.5-6.3 15.6-7.5 20.5-2.3 4.7 4.9 3.3 14-3.3 20.3-2.8 2.8-6.3 4.4-9.6 5.1-.2 0-.5.2-.7.2h-.7c-4.7.7-12.6.5-16.3 2.6-4.7 2.6-6.5 12.3-8.2 14h-.2c-1.6 3-4.9 5.4-8.9 6.8-1.2.5-2.3.5-3.5.7-3 1.2-12.1.7-16.8 2.3-4.4 1.6-5.1 8.2-7.9 10-1.6 1.6-4.4 3.3-7.7 4-1.2.2-2.3.5-3.5.5-3 .5-4.9 0-10 1.9s-5.8 4.4-8.2 5.6H65c-1.2 1.2-3.3 1.9-5.6 2.1-4 .2-7.5-1.2-7.5-3.5-.9-2.2 2.2-4.3 6.1-4.7z" fill="url(#ab6fd8ff-f9c3-4f31-88c5-40f6ae0a049d_comp-krjf65bc_r_comp-kr4vck3q1)"></path>
        <linearGradient gradientTransform="rotate(-16.755 484.586 107.315)" y2="56.82" x2="-101.987" y1="171.942" x1="233.033" gradientUnits="userSpaceOnUse" id="67181769-b924-47e6-83f0-848e752df2dd_comp-krjf65bc_r_comp-kr4vck3q1">
            <stop offset=".212" stop-color="#0058a9"></stop>
            <stop offset=".323" stop-color="#006fb8"></stop>
            <stop offset=".573" stop-color="#00b1e8"></stop>
            <stop offset=".616" stop-color="#00bff3"></stop>
        </linearGradient>
        <path d="M120.2 233.5c1.2 3.5-1.9 7.5-6.3 8.9-4.7 1.4-9.1-.5-10.2-4-1.2-3.5 1.9-7.5 6.3-8.9 4.6-1.4 9.3.5 10.2 4z" fill="url(#67181769-b924-47e6-83f0-848e752df2dd_comp-krjf65bc_r_comp-kr4vck3q1)"></path>
        <linearGradient gradientTransform="rotate(-16.755 484.586 107.315)" y2="-114.439" x2="-43.116" y1=".678" x1="291.886" gradientUnits="userSpaceOnUse" id="53436ece-9cb0-4bf1-9007-10e6d44c7532_comp-krjf65bc_r_comp-kr4vck3q1">
            <stop offset=".212" stop-color="#0058a9"></stop>
            <stop offset=".323" stop-color="#006fb8"></stop>
            <stop offset=".573" stop-color="#00b1e8"></stop>
            <stop offset=".616" stop-color="#00bff3"></stop>
        </linearGradient>
        <path d="M217.6 68.1c1.4 6.3 6.1 9.8 7.7 13.3 1.2 2.1 2.3 4.4 3 7.2 2.1 8.4-.5 16.3-5.6 17.5-5.1 1.2-10.7-4.7-12.8-13-.5-2.3-.7-4.4-.7-6.5v-.2c0-6.5 4.4-9.3 1.6-17.5-2.6-7.9-7.9-13.7-8.9-17-1.4-2.6-1.9-5.4-2.1-7.7-1.2-3.5 1.9-8.6-.2-13.5-2.1-4.7-5.6-7.2-6.8-10.2l-.5-.5c-3-3.7-4-7.7-2.6-9.1 1.6-1.2 5.4.7 8.2 4.4.7.9 1.4 1.9 1.9 2.8.2 0 .2.2.2.5 2.3 3 .7 7.2 3.3 12.6 2.6 5.1 7.2 8.2 8.2 10.2 1.2 1.4 2.1 2.8 3 4.4 1.2 2.6 1.9 4.9 2.1 7.2.8 3-.4 8.8 1 15.1z" fill="url(#53436ece-9cb0-4bf1-9007-10e6d44c7532_comp-krjf65bc_r_comp-kr4vck3q1)"></path>
        <linearGradient gradientTransform="rotate(-16.755 484.586 107.315)" y2="-78.518" x2="-55.478" y1="36.605" x1="279.544" gradientUnits="userSpaceOnUse" id="b05ba9f8-1d73-4f65-a2a9-93c4556492f0_comp-krjf65bc_r_comp-kr4vck3q1">
            <stop offset=".212" stop-color="#0058a9"></stop>
            <stop offset=".323" stop-color="#006fb8"></stop>
            <stop offset=".573" stop-color="#00b1e8"></stop>
            <stop offset=".616" stop-color="#00bff3"></stop>
        </linearGradient>
        <path d="M65.3 99.5c-4.4 1.4-9.3-1.4-10.7-6.3-1.4-4.9.9-9.8 5.4-11.2 4.4-1.4 9.3 1.4 10.7 6.3 1.3 4.9-1 10.1-5.4 11.2z" fill="url(#b05ba9f8-1d73-4f65-a2a9-93c4556492f0_comp-krjf65bc_r_comp-kr4vck3q1)"></path>
        <linearGradient gradientTransform="matrix(.5792 -.426 .5925 .8055 62.898 250.097)" y2="-209.907" x2="121.847" y1="-94.778" x1="456.885" gradientUnits="userSpaceOnUse" id="db01a2ff-4743-4e83-b828-7c6637badc91_comp-krjf65bc_r_comp-kr4vck3q1">
            <stop offset=".212" stop-color="#0058a9"></stop>
            <stop offset=".323" stop-color="#006fb8"></stop>
            <stop offset=".573" stop-color="#00b1e8"></stop>
            <stop offset=".616" stop-color="#00bff3"></stop>
        </linearGradient>
        <path d="M124.7 15.4c-2.8 1.9-7.2.2-10.2-3.7-3-4-3.3-8.9-.5-10.9 2.8-1.9 7.2-.2 10.2 3.7 2.8 4 3 8.8.5 10.9z" fill="url(#db01a2ff-4743-4e83-b828-7c6637badc91_comp-krjf65bc_r_comp-kr4vck3q1)"></path>
        <linearGradient gradientTransform="rotate(-16.755 484.586 107.315)" y2="102.213" x2="-117.587" y1="217.336" x1="217.435" gradientUnits="userSpaceOnUse" id="977f3220-f838-4ee3-8ad9-a71ab4206f5f_comp-krjf65bc_r_comp-kr4vck3q1">
            <stop offset=".212" stop-color="#0058a9"></stop>
            <stop offset=".323" stop-color="#006fb8"></stop>
            <stop offset=".573" stop-color="#00b1e8"></stop>
            <stop offset=".616" stop-color="#00bff3"></stop>
        </linearGradient>
        <path d="M109 278.7c4.9-1.4 9.3-.2 10.2 2.6s-2.3 6.5-7 7.9c-4.9 1.4-9.3.2-10.2-2.6-1.1-3 2.2-6.5 7-7.9z" fill="url(#977f3220-f838-4ee3-8ad9-a71ab4206f5f_comp-krjf65bc_r_comp-kr4vck3q1)"></path>
        <linearGradient gradientTransform="rotate(-16.755 484.586 107.315)" y2="86.133" x2="-112.061" y1="201.256" x1="222.96" gradientUnits="userSpaceOnUse" id="5ce4df8b-5a0e-42f4-8289-f1d909dbe092_comp-krjf65bc_r_comp-kr4vck3q1">
            <stop offset=".212" stop-color="#0058a9"></stop>
            <stop offset=".323" stop-color="#006fb8"></stop>
            <stop offset=".573" stop-color="#00b1e8"></stop>
            <stop offset=".616" stop-color="#00bff3"></stop>
        </linearGradient>
        <path d="M47.8 257.7c5.6-.7 10.5 1.6 10.9 5.4.5 3.7-3.7 7.2-9.3 8.2-5.6.9-10.5-1.6-10.9-5.4-.3-3.8 3.9-7.5 9.3-8.2z" fill="url(#5ce4df8b-5a0e-42f4-8289-f1d909dbe092_comp-krjf65bc_r_comp-kr4vck3q1)"></path>
        <path d="M636 259.6c-13.3-1.4-20.3-7.2-21-16.8v-.5c0-1.9 2.8-16.3 12.1-62l.5-2.8c5.1-25.6 12.3-60.1 21.2-104.4v-.5h4c10 0 17.5 3 21.7 8.6.7.9 2.3 4 2.6 4.9.7 1.6.9 3 .7 3.7v.5c-.9 6.1-4.2 22.4-10.7 54.5v.5c-5.4 27-13 63.8-22.8 113.4v.5H636v.4z" fill="#004e96"></path>
        <path d="M238.6 283.1l-1.9 10.9h9.6l-.5 2.3h-9.6l-2.3 12.8h-2.6l4.9-28.2h12.6l-.5 2.3h-9.8v-.1z" fill="#7d7e81"></path>
        <path d="M262.1 306.9l-.5 2.3h-13.5L253 281h13l-.5 2.3H255l-1.9 10.5h9.8l-.5 2.3h-9.8l-1.9 10.9h11.2v-.1z" fill="#7d7e81"></path>
        <path d="M271.2 280.8h6.3c5.4 0 7.7 3 6.8 8.4l-2.1 11.6c-.9 5.1-4.7 8.2-9.8 8.2h-6.3l5.1-28.2zm1.8 25.8c3.7 0 6.3-2.1 7-6.1l2.1-11.4c.7-4-.9-6.1-4.7-6.1h-3.7l-4.2 23.5h3.5z" fill="#7d7e81"></path>
        <path d="M300.1 306.9l-.5 2.3h-13.5L291 281h13l-.5 2.3H293l-1.9 10.5h9.8l-.5 2.3h-9.8l-1.9 10.9h11.2v-.1z" fill="#7d7e81"></path>
        <path d="M311.7 298h-3l-1.9 10.9h-2.6l4.9-28.2h6.3c5.1 0 7.5 3 6.5 8.4-.9 4.9-3.7 8.2-7.7 8.9l4.9 11.2h-2.8l-4.6-11.2zm-2.6-2.3h4c3.7 0 5.8-2.3 6.8-6.5.7-4-.7-6.1-4.4-6.1h-4l-2.4 12.6z" fill="#7d7e81"></path>
        <path d="M335.2 302.4h-8.9l-2.8 6.5H321l12.3-28.2h2.8l2.3 28.2h-2.8l-.4-6.5zm-.2-2.1l-.7-11.6c-.2-1.6-.2-3.7-.2-4.4-.2.7-.9 2.8-1.6 4.4l-4.9 11.6h7.4z" fill="#7d7e81"></path>
        <path d="M357.4 283.1h-6.1l-4.7 25.9H344l4.7-25.9h-6.1l.5-2.3h14.7l-.4 2.3z" fill="#7d7e81"></path>
        <path d="M361.6 280.8h2.6l-4.9 28.2h-2.6l4.9-28.2z" fill="#7d7e81"></path>
        <path d="M366 300.3l1.9-10.7c.9-5.6 4.7-9.3 9.6-9.3 5.1 0 7.5 3.5 6.3 9.3l-1.9 10.7c-.9 5.6-4.7 9.3-9.6 9.3-4.9.1-7.2-3.7-6.3-9.3zm13.5 0l1.9-10.7c.7-4.4-.7-6.8-4.2-6.8-3.7 0-6.1 2.6-6.8 6.8l-1.9 10.7c-.7 4.4.7 6.8 4.2 6.8 3.8.2 6.1-2.3 6.8-6.8z" fill="#7d7e81"></path>
        <path d="M390.9 280.8h2.6l4.7 16.5c.7 2.1 1.4 5.4 1.9 7h.2c.2-2.1.7-5.8 1.2-8.2l2.8-15.4h2.6l-4.9 28.2h-2.6l-4.7-16.5c-.5-1.9-1.4-5.4-1.6-6.8h-.2c-.2 2.1-.7 5.4-1.2 7.7l-2.8 15.8h-2.6l4.6-28.3z" fill="#7d7e81"></path>
        <path d="M417.5 300.3l1.9-10.7c.9-5.6 4.7-9.3 9.6-9.3 5.1 0 7.5 3.5 6.3 9.3l-1.9 10.7c-.9 5.6-4.7 9.3-9.6 9.3-4.9.1-7.5-3.7-6.3-9.3zm13.5 0l1.9-10.7c.7-4.4-.7-6.8-4.2-6.8-3.7 0-6.1 2.6-6.8 6.8l-1.9 10.7c-.7 4.4.7 6.8 4.2 6.8 3.8.2 5.8-2.3 6.8-6.8z" fill="#7d7e81"></path>
        <path d="M444.3 283.1l-1.9 10.9h9.6l-.5 2.3h-9.6l-2.3 12.8H437l4.9-28.2h12.6l-.5 2.3h-9.8v-.1z" fill="#7d7e81"></path>
        <path d="M468.3 280.8h2.6L466 309h-2.6l4.9-28.2z" fill="#7d7e81"></path>
        <path d="M488.8 283.1h-6.1L478 309h-2.6l4.7-25.9H474l.5-2.3h14.7l-.4 2.3z" fill="#7d7e81"></path>
        <path d="M502 280.8h2.6l-4.9 28.2h-2.6l4.9-28.2z" fill="#7d7e81"></path>
        <path d="M510.6 280.8h2.6l4.7 16.5c.7 2.1 1.4 5.4 1.9 7h.2c.2-2.1.7-5.8 1.2-8.2l2.8-15.4h2.6l-4.9 28.2H519l-4.7-16.5c-.5-1.9-1.4-5.4-1.6-6.8h-.2c-.2 2.1-.7 5.4-1.2 7.7l-2.8 15.8h-2.8l4.9-28.3z" fill="#7d7e81"></path>
        <path d="M532.3 280.8h6.3c5.4 0 7.7 3 6.8 8.4l-2.1 11.6c-.9 5.1-4.7 8.2-9.8 8.2h-6.3l5.1-28.2zm1.6 25.8c3.7 0 6.3-2.1 7-6.1l2.1-11.4c.7-4-.9-6.1-4.7-6.1h-3.7l-4.2 23.5h3.5z" fill="#7d7e81"></path>
        <path d="M548.2 300.8l3.5-20h2.6l-3.5 20c-.7 4.2.9 6.3 4 6.3 3 0 5.6-1.9 6.3-6.3l3.5-20h2.6l-3.5 20c-.9 5.6-4.7 8.6-9.1 8.6-4.6 0-7.4-2.8-6.4-8.6z" fill="#7d7e81"></path>
        <path d="M567.3 301.7h2.6c-.5 3.5 1.2 5.4 4.2 5.4 3.5 0 5.4-2.1 6.1-5.1 1.2-6.5-11.2-6.5-9.8-14.7.7-4 4.2-7 8.4-7 4.4 0 6.5 3.3 6.1 7.7h-2.6c.5-3.5-1.2-5.1-3.7-5.1-3 0-5.1 1.9-5.6 4.4-1.2 6.5 11.2 6.3 9.8 14.7-.7 3.7-4 7.7-8.9 7.7-5 0-7.3-3.1-6.6-8z" fill="#7d7e81"></path>
        <path d="M602.7 283.1h-6.1l-4.7 25.9h-2.6l4.7-25.9h-6l.5-2.3h14.7l-.5 2.3z" fill="#7d7e81"></path>
        <path d="M609.4 298h-3l-1.9 10.9H602l4.9-28.2h6.3c5.1 0 7.5 3 6.5 8.4-.9 4.9-3.7 8.2-7.7 8.9l4.9 11.2h-2.8l-4.7-11.2zm-2.8-2.3h4c3.7 0 5.8-2.3 6.8-6.5.7-4-.7-6.1-4.4-6.1h-4l-2.4 12.6z" fill="#7d7e81"></path>
        <path d="M627.1 298.9l-3.7-18.2h2.6l2.1 10.9c.2 1.4.5 2.8.9 4.4l2.3-4.4 5.8-10.9h2.6l-10.2 18.2-1.9 10.2H625l2.1-10.2z" fill="#7d7e81"></path>
        <path d="M646.7 301.7h2.6c-.5 3.5 1.2 5.4 4.2 5.4 3.5 0 5.4-2.1 6.1-5.1 1.2-6.5-11.2-6.5-9.8-14.7.7-4 4.2-7 8.4-7 4.4 0 6.5 3.3 6.1 7.7h-2.6c.5-3.5-1.2-5.1-3.7-5.1-3 0-5.1 1.9-5.6 4.4-1.2 6.5 11.2 6.3 9.8 14.7-.7 3.7-4 7.7-8.9 7.7-5 0-7.3-3.1-6.6-8z" fill="#7d7e81"></path>
        <path d="M672.3 298h-3l-1.9 10.9h-2.6l4.9-28.2h6.3c5.1 0 7.5 3 6.5 8.4-.9 4.9-3.7 8.2-7.7 8.9l4.9 11.2H677l-4.7-11.2zm-2.8-2.3h4c3.7 0 5.8-2.3 6.8-6.5.7-4-.7-6.1-4.4-6.1h-4l-2.4 12.6z" fill="#7d7e81"></path>
        <path d="M689.1 280.8h2.6l-4.9 28.2h-2.6l4.9-28.2z" fill="#7d7e81"></path>
        <path d="M714.9 306.6l-.5 2.3h-12.6l4.9-28.2h2.6l-4.7 25.9h10.3z" fill="#7d7e81"></path>
        <path d="M729.4 302.4h-8.9l-2.8 6.5h-2.6l12.3-28.2h2.8l2.3 28.2h-2.6l-.5-6.5zm0-2.1l-.7-11.6c-.2-1.6-.2-3.7-.2-4.4-.2.7-.9 2.8-1.6 4.4l-4.9 11.6h7.4z" fill="#7d7e81"></path>
        <path d="M741 280.8h2.6l4.7 16.5c.7 2.1 1.4 5.4 1.9 7h.2c.2-2.1.7-5.8 1.2-8.2l2.8-15.4h2.6l-5 28.3h-2.6l-4.7-16.5c-.5-1.9-1.4-5.4-1.6-6.8h-.2c-.2 2.1-.7 5.4-1.2 7.7l-2.8 15.8h-2.6l4.7-28.4z" fill="#7d7e81"></path>
        <path d="M764.6 295.4l-2.6 2.8-1.9 10.9h-2.6l4.9-28.2h2.6l-2.3 13.5 2.8-3.3 8.9-10.2h3l-11.2 12.3 7.2 15.8h-3l-5.8-13.6z" fill="#7d7e81"></path>
        <path d="M788.3 302.4h-8.9l-2.8 6.5H774l12.3-28.2h2.8l2.3 28.2H789l-.7-6.5zm0-2.1l-.7-11.6c-.2-1.6-.2-3.7-.2-4.4-.2.7-.9 2.8-1.6 4.4l-4.9 11.6h7.4z" fill="#7d7e81"></path>
        <path d="M527.2 259.6c-13-1.4-20-7-20.5-16.3 1.6-10 6.1-32.1 14.9-76.2 3.7-18.4 7.9-39.8 13-65.2l.5-1.9h-46.6v-.5c-.2-5.6 1.6-11.2 5.8-16.5 2.3-3 5.8-5.8 7.5-6.8 4.2-2.3 8.2-3.5 12.1-3.5h104.6l-.2 1.2c-1.2 8.9-3.5 14.7-6.8 18.2-5.4 5.1-11.6 7.9-19.1 7.9h-24l-.2 1.2c-.9 3-3 12.6-8.4 42.4l-23.3 115.8-9.3.2z" fill="#004e96"></path>
        <path d="M421.4 259.6c-13.3-1.4-20.3-7.2-21-16.8v-.5c0-1.9 2.8-16.3 12.1-62l.2-1.2c5.4-25.9 12.3-60.8 21.4-106v-.5h4c10 0 17.5 3 21.7 8.6.7.9 2.3 4 2.6 4.9.7 1.6.9 3 .7 3.7v.5c-.9 6.1-4.4 23.3-10.7 54.5l-.2 1.2c-5.4 26.8-12.8 63.4-22.6 112.7v.5h-8.2v.4z" fill="#004e96"></path>
        <path d="M265.6 260c-15.8-1.4-18.4-12.1-18.4-18.4V240c1.6-10 7.5-42.9 25.9-126.5 4.2-11.4 10.5-20.3 18.4-26.3 10.5-9.1 23.1-13.7 37.5-13.7h59.4l-.7 4c-3.3 22.4-15.4 27-24.9 27h-26.6c-18.9 0-24.7 3.7-26.3 6.1-4.2 4.2-6.8 8.6-7.7 13.7l-10 47.3h62.2v3c0 5.4-1.4 10.7-4.4 16.1-1.4 2.3-4.2 6.1-7.2 7.9-4.2 2.6-8.9 4-14.2 4H286l-.2 1.4c-.2 1.6-.7 4.4-1.6 9.6l-10.5 46.8h-7.9v-.4z" fill="#004e96"></path>
        <path d="M774.3 72.8c-23.1 0-41.5 7.7-54.7 22.8-9.3 13.3-13.7 26.6-13 39.6.9 17.7 13 29.4 35.6 34.9 13.7.7 22.8 1.6 27 3 10 3.3 15.1 9.1 15.6 17.7v1.6c.2 3 .5 4.4-2.6 17.9-3.7 14.9-14.7 22.1-33.5 22.1h-40.1c-9.3 0-17 2.8-22.6 8.2-4.4 6.5-6.3 12.8-6.1 18.6v.5h69.2c8.9 0 17.9-1.9 27.5-5.6 15.4-5.6 26.8-16.8 34.2-33.3 1.2-4.9 2.3-8.6 3-11.9 2.6-10 3.3-12.6 3-18.2-.2-6.3-2.1-13-5.1-20.3-10.5-18.2-28.4-27.5-53.1-27.5-18.4 0-18.9-8.2-19.1-10.9-.5-10.5 2.8-18.9 10.5-25.4 4.2-4.4 15.6-6.5 32.6-6.5H817c7.5 0 13.7-2.8 18.6-8.6 2.6-2.1 4.7-7.7 6.1-17.2l.2-1.6-67.6.1z" fill="#004e96"></path>
    </g>
</svg>