<svg xmlns="http://www.w3.org/2000/svg" width="439.8" height="312.6" viewBox="0 0 440 313">
  <g fill="none" stroke="currentColor" stroke-linecap="round" stroke-linejoin="round">
    <path stroke-width="1.9" d="m248 26 2-1"/>
    <path stroke-width="3" d="m250 25 2-1"/>
    <path stroke-width="5.1" d="m252 24 2-1"/>
    <path stroke-width="7" d="M254 23v-2"/>
    <path stroke-width="7.8" d="m254 21-1-3"/>
    <path stroke-width="8.2" d="m253 18-1-2"/>
    <path stroke-width="8.4" d="m252 16-2-3"/>
    <path stroke-width="8.6" d="m250 13-2-2"/>
    <path stroke-width="8.8" d="m248 11-2-1"/>
    <path stroke-width="8.9" d="m246 10-2-1"/>
    <path stroke-width="9.1" d="m244 9-4-3"/>
    <path stroke-width="9.4" d="M240 6h-2"/>
    <path stroke-width="9.6" d="m238 6-3-1"/>
    <path stroke-width="9.7" d="M235 5h-3"/>
    <path stroke-width="9.9" d="M232 5h-3"/>
    <path stroke-width="10.1" d="M229 5h-3"/>
    <path stroke-width="10.2" d="m226 5-4 1"/>
    <path stroke-width="10.4" d="m222 6-4 1"/>
    <path stroke-width="10.5" d="m218 7-3 2"/>
    <path stroke-width="10.7" d="m215 9-4 1"/>
    <path stroke-width="10.8" d="m211 10-4 3"/>
    <path stroke-width="10.9" d="m207 13-3 2"/>
    <path stroke-width="11.1" d="m204 15-5 4"/>
    <path stroke-width="11.2" d="m199 19-3 3"/>
    <path stroke-width="11.3" d="m196 22-4 3m0 0-3 4"/>
    <path stroke-width="11.4" d="m189 29-4 4"/>
    <path stroke-width="11.5" d="m185 33-4 5m0 0-3 4"/>
    <path stroke-width="11.6" d="m178 42-4 6m0 0-3 5m0 0-3 6"/>
    <path stroke-width="11.7" d="m168 59-4 6m0 0-3 6m0 0-4 7m0 0-2 7m0 0-3 7m0 0-3 8"/>
    <path stroke-width="11.8" d="m149 100-3 8m0 0-3 9m0 0-3 8m0 0-3 9m0 0-3 9m0 0-2 9m0 0-3 9m0 0-3 8m0 0-2 9m0 0-3 9m0 0-4 8m0 0-2 9m0 0-3 8m0 0-3 8m0 0-3 7"/>
    <path stroke-width="11.7" d="m106 227-3 8m0 0-4 7m0 0-3 7m0 0-4 7m0 0-4 6m0 0-4 6"/>
    <path stroke-width="11.6" d="m84 268-3 6m0 0-4 5"/>
    <path stroke-width="11.5" d="m77 279-4 4m0 0-4 5"/>
    <path stroke-width="11.4" d="m69 288-5 4"/>
    <path stroke-width="11.3" d="m64 292-4 3"/>
    <path stroke-width="11.2" d="m60 295-3 3m0 0-5 2"/>
    <path stroke-width="11" d="m52 300-4 2"/>
    <path stroke-width="10.9" d="m48 302-4 2"/>
    <path stroke-width="10.8" d="m44 304-4 2"/>
    <path stroke-width="10.7" d="M40 306h-4"/>
    <path stroke-width="10.6" d="m36 306-4 1"/>
    <path stroke-width="10.4" d="M32 307h-4"/>
    <path stroke-width="10.3" d="M28 307h-3"/>
    <path stroke-width="10.2" d="M25 307h-4"/>
    <path stroke-width="10" d="m21 307-3-1"/>
    <path stroke-width="9.9" d="m18 306-2-2"/>
    <path stroke-width="9.8" d="m16 304-3-1"/>
    <path stroke-width="9.7" d="m13 303-3-2"/>
    <path stroke-width="9.5" d="m10 301-2-3m0 0-1-3"/>
    <path stroke-width="9.4" d="m7 295-1-3"/>
    <path stroke-width="9.3" d="m6 292-1-3"/>
    <path stroke-width="9.2" d="M5 289v-4m0 0v-3"/>
    <path stroke-width="9.1" d="M5 282v-4m0 0 1-4m0 0 1-4"/>
    <path stroke-width="9" d="m7 270 1-4m0 0 2-4m0 0 3-4m0 0 2-4m0 0 4-4m0 0 3-4m0 0 4-4m0 0 4-3m0 0 5-4m0 0 5-3m0 0 5-4m0 0 6-4m0 0 6-4m0 0 6-4m0 0 7-4m0 0 7-4m0 0 7-4m0 0 7-4m0 0 7-4m0 0 7-4m0 0 7-4m0 0 7-5m0 0 6-4m0 0 7-3m0 0 6-4m0 0 7-4"/>
    <path stroke-width="9.1" d="m145 168 6-3m0 0 5-4m0 0 6-3m0 0 5-3m0 0 5-3m0 0 4-2m0 0 5-2m0 0 4-2m0 0 4-2m0 0 3-2m0 0 3-2m0 0 3-1m0 0 2-2m0 0 3-1m0 0 2-2m0 0 2-1m0 0 3-2"/>
    <path stroke-width="9" d="m210 131 3-3m0 0 2-2m0 0 1-2"/>
    <path stroke-width="9.1" d="m216 124-1-2m0 0-2-1"/>
    <path stroke-width="9.2" d="m213 121-2-1"/>
    <path stroke-width="9.3" d="M211 120h-3"/>
    <path stroke-width="9.4" d="m208 120-2 1"/>
    <path stroke-width="9.5" d="m206 121-4 1"/>
    <path stroke-width="9.6" d="m202 122-3 2m0 0-2 2"/>
    <path stroke-width="9.7" d="m197 126-3 2m0 0-3 3"/>
    <path stroke-width="9.8" d="m191 131-2 3m0 0-1 3m0 0-1 4m0 0-1 3m0 0v3m0 0v3m0 0 1 2"/>
    <path stroke-width="9.7" d="m187 152 2 1m0 0 3 1"/>
    <path stroke-width="9.6" d="M192 154h3"/>
    <path stroke-width="9.5" d="M195 154h2m0 0h2m0 0 2-1m0 0 3-1"/>
    <path stroke-width="9.4" d="m204 152 2-1m0 0 3-1m0 0 2-1m0 0 2-1"/>
    <path stroke-width="9.3" d="m213 148 3-1m0 0 2-2m0 0 2-1m0 0 2-1m0 0 3-3"/>
    <path stroke-width="9.2" d="m225 140 3-2m0 0 2-2"/>
    <path stroke-width="9.1" d="m230 136 2-1m0 0 2-2"/>
    <path stroke-width="9" d="m234 133 2-2"/>
    <path stroke-width="8.9" d="m236 131-3 1"/>
    <path stroke-width="9" d="m233 132-1 2m0 0-1 2"/>
    <path stroke-width="9.1" d="M231 136v3m0 0v3"/>
    <path stroke-width="9" d="m231 142 2 1m0 0 3 1"/>
    <path stroke-width="8.9" d="M236 144h2m0 0h3"/>
    <path stroke-width="8.8" d="M241 144h2m0 0 2-1m0 0h3m0 0 2-1"/>
    <path stroke-width="8.7" d="m250 142 2-1m0 0 2-1m0 0 2-1"/>
    <path stroke-width="8.6" d="m256 139 2-1m0 0 2-1m0 0 2-1m0 0 4-3"/>
    <path stroke-width="8.5" d="m266 133 3-2"/>
    <path stroke-width="8.4" d="m269 131 2-2"/>
    <path stroke-width="8.3" d="m271 129 2-2"/>
    <path stroke-width="8.2" d="m273 127 1-2"/>
    <path stroke-width="8.1" d="m274 125 1-1"/>
    <path stroke-width="8" d="m275 124-2 1"/>
    <path stroke-width="8.1" d="m273 125-1 2"/>
    <path stroke-width="8.4" d="m272 127-1 2"/>
    <path stroke-width="8.5" d="M271 129v2"/>
    <path stroke-width="8.7" d="M271 131v2"/>
    <path stroke-width="8.8" d="m271 133 2 2m0 0 2 1"/>
    <path stroke-width="8.7" d="m275 136 2 1m0 0h3"/>
    <path stroke-width="8.6" d="M280 137h4m0 0 3-1m0 0h3m0 0 2-1"/>
    <path stroke-width="8.5" d="M292 135h2m0 0 2-1m0 0 2-1m0 0h3m0 0 3-1m0 0 2-1m0 0 2-1m0 0 4-2m0 0 2-1m0 0 3-1m0 0 2-2m0 0 3-2m0 0 3-2m0 0 2-1"/>
    <path stroke-width="8.4" d="m327 119 2-3m0 0 3-1m0 0 3-2m0 0 2-3m0 0 2-2"/>
    <path stroke-width="8.3" d="m339 108 2-2m0 0 2-2m0 0 2-2"/>
    <path stroke-width="8.2" d="m345 102 1-2m0 0 2-2m0 0 1-2m0 0 1-1"/>
    <path stroke-width="8.1" d="m350 95 1-3m0 0 2-3"/>
    <path stroke-width="8" d="m353 89 1-2m0 0-1-2m0 0-2-1"/>
    <path stroke-width="8.1" d="M351 84h-2m0 0-3 1"/>
    <path stroke-width="8.2" d="m346 85-2 2m0 0-2 1m0 0-2 2"/>
    <path stroke-width="8.3" d="m340 90-2 3"/>
    <path stroke-width="8.4" d="m338 93-2 2m0 0-2 1"/>
    <path stroke-width="8.5" d="m334 96-1 2m0 0-1 2"/>
    <path stroke-width="8.6" d="m332 100-2 2m0 0-1 3"/>
    <path stroke-width="8.7" d="m329 105-1 2m0 0-1 2m0 0v3"/>
    <path stroke-width="8.8" d="m327 112-1 2m0 0-1 3m0 0v2"/>
    <path stroke-width="8.9" d="M325 119v3m0 0v2m0 0v3m0 0v3m0 0v2m0 0v2"/>
    <path stroke-width="9" d="m325 134 1 4m0 0 1 2m0 0 1 4"/>
    <path stroke-width="8.9" d="m328 144 2 3m0 0 4 2m0 0 3 1"/>
    <path stroke-width="8.8" d="m337 150 3 1m0 0h3m0 0h2"/>
    <path stroke-width="8.7" d="m345 151 2-1m0 0h2m0 0 2-1m0 0 4-1"/>
    <path stroke-width="8.6" d="m355 148 4-2m0 0 2-1m0 0 2-2"/>
    <path stroke-width="8.5" d="m363 143 3-2m0 0 3-3"/>
    <path stroke-width="8.4" d="m369 138 3-2m0 0 2-2m0 0 2-2m0 0 1-3m0 0 2-2"/>
    <path stroke-width="8.3" d="m379 127 1-2m0 0 1-3m0 0 1-2m0 0-2 2"/>
    <path stroke-width="8.7" d="M380 122v3"/>
    <path stroke-width="8.8" d="M380 125v2"/>
    <path stroke-width="8.9" d="M380 127v2m0 0v3"/>
    <path stroke-width="9" d="m380 132 1 2m0 0 1 2m0 0 2 2m0 0 2 2m0 0 2 2m0 0 2 1m0 0 2 1m0 0 4 1"/>
    <path stroke-width="8.9" d="M396 145h3m0 0h2"/>
    <path stroke-width="8.8" d="M401 145h3"/>
    <path stroke-width="8.7" d="m404 145 3-1"/>
    <path stroke-width="8.6" d="m407 144 2-1"/>
    <path stroke-width="8.5" d="m409 143 3-1"/>
    <path stroke-width="8.3" d="m412 142 2-1"/>
    <path stroke-width="7.8" d="m414 141 3-1"/>
    <path stroke-width="5.9" d="m427 83 2-2"/>
    <path stroke-width="7.1" d="m429 81 1 2"/>
    <path stroke-width="8.1" d="M422 87v-3"/>
    <path stroke-width="8.2" d="m422 84 2-1"/>
    <path stroke-width="8.9" d="M424 83h2"/>
    <path stroke-width="9.4" d="M426 83h2"/>
    <path stroke-width="9.7" d="M428 83h2"/>
    <path stroke-width="9.9" d="M430 83h2"/>
    <path stroke-width="10.1" d="m432 83 2 1"/>
    <path stroke-width="10.4" d="M434 84v2"/>
    <path stroke-width="10.7" d="M434 86v2"/>
    <path stroke-width="10.9" d="m434 88-1 3"/>
    <path stroke-width="11.1" d="m433 91-2 1"/>
    <path stroke-width="11.2" d="m431 92-2 1"/>
    <path stroke-width="11.1" d="M429 93h-2m0 0h-3m0 0h-2"/>
    <path stroke-width="11" d="m422 93-2-1m0 0-1-3"/>
    <path stroke-width="10.9" d="M419 89v-2m0 0 2-2"/>
    <path stroke-width="11" d="m421 85 2-1m0 0 2-1"/>
    <path stroke-width="11.2" d="M425 83h3"/>
    <path stroke-width="11.3" d="m428 83 2 1"/>
    <path stroke-width="11.4" d="m430 84 1 2"/>
    <path stroke-width="11.5" d="m431 86 1 2m0 0-1 3m0 0-1 1"/>
    <path stroke-width="11.4" d="m430 92-2 1"/>
    <path stroke-width="11.3" d="m428 93-3 1"/>
    <path stroke-width="11.1" d="m425 94-2-1"/>
    <path stroke-width="10.8" d="m423 93-1-2"/>
    <path stroke-width="10.4" d="m422 91-1-2"/>
    <path stroke-width="9.8" d="M421 89v-2"/>
  </g>
</svg>
